<svg xmlns="http://www.w3.org/2000/svg" width="2129.8" height="519.1" viewBox="0 0 2129.8 519.1">
  <g id="logo" transform="translate(54 -152)">
    <g id="Grupo_1" data-name="Grupo 1">
      <path id="Trazado_1" data-name="Trazado 1" d="M621.5,389.2H744.9V337H566.6V619.2h55.3V509.4H731.4V458.8H621.5Z" fill="#fff"/>
      <path id="Trazado_2" data-name="Trazado 2" d="M803.6,560.1a36.344,36.344,0,0,0-11.7-7.8,38.348,38.348,0,0,0-14.3-2.8,36.25,36.25,0,1,0,0,72.5,36.465,36.465,0,0,0,14.3-2.8,34.8,34.8,0,0,0,11.7-7.8,37.743,37.743,0,0,0,7.8-11.5,36.9,36.9,0,0,0,0-28.2A37.013,37.013,0,0,0,803.6,560.1Z" fill="#fff"/>
      <path id="Trazado_3" data-name="Trazado 3" d="M1055.9,474.8c10.7-14.1,16.1-31,16.1-51a90.081,90.081,0,0,0-6.4-34.2,80.806,80.806,0,0,0-18.1-27.5,85.321,85.321,0,0,0-28.3-18.3c-11.1-4.5-23.4-6.8-37.2-6.8H871.9V619.2h55.3V510.6h28.7l55.3,108.7h61.3L1012,503.8C1030.5,498.5,1045.2,488.8,1055.9,474.8Zm-51.5-22.3c-7.7,7.2-18.6,10.7-32.6,10.7H927.2V384.8h44.6c14.1,0,24.9,3.6,32.6,10.7,7.7,7.2,11.5,16.7,11.5,28.7C1015.9,435.9,1012.1,445.3,1004.4,452.5Z" fill="#fff"/>
      <path id="Trazado_4" data-name="Trazado 4" d="M1348.3,370.5a138.166,138.166,0,0,0-46.4-29.3,153.384,153.384,0,0,0-110,0,137.726,137.726,0,0,0-46.2,29.3,141.86,141.86,0,0,0-31.8,46.4c-8,18.2-11.9,38.7-11.9,61.5s4,43.2,11.9,61.3a143.594,143.594,0,0,0,31.8,46.2,139.3,139.3,0,0,0,46.2,29.3,150.171,150.171,0,0,0,54.9,10.1,153.75,153.75,0,0,0,55.1-10.1,137.6,137.6,0,0,0,46.4-29.3,140.985,140.985,0,0,0,31.8-46.2c8-18,11.9-38.5,11.9-61.3s-4-43.3-11.9-61.5S1361.6,383.2,1348.3,370.5Zm-20.7,149c-5.1,11.8-11.8,21.6-20.1,29.3a81.771,81.771,0,0,1-28.5,17.3,92.83,92.83,0,0,1-32.2,5.8,90.518,90.518,0,0,1-32-5.8,85.361,85.361,0,0,1-28.3-17.3,83.426,83.426,0,0,1-20.1-29.3c-5.1-11.8-7.6-25.7-7.6-41.6s2.5-29.8,7.6-41.6c5-11.8,11.7-21.6,20.1-29.3a83.744,83.744,0,0,1,28.3-17.3,93.661,93.661,0,0,1,32-5.8,92.418,92.418,0,0,1,32.2,5.8,85.224,85.224,0,0,1,28.5,17.3,82.135,82.135,0,0,1,20.1,29.3c5,11.8,7.6,25.7,7.6,41.6C1335.2,493.9,1332.6,507.7,1327.6,519.5Z" fill="#fff"/>
      <path id="Trazado_5" data-name="Trazado 5" d="M1669.5,370.5a138.166,138.166,0,0,0-46.4-29.3,153.384,153.384,0,0,0-110,0,137.726,137.726,0,0,0-46.2,29.3,141.86,141.86,0,0,0-31.8,46.4c-8,18.2-11.9,38.7-11.9,61.5s4,43.2,11.9,61.3a143.594,143.594,0,0,0,31.8,46.2,139.3,139.3,0,0,0,46.2,29.3,150.171,150.171,0,0,0,54.9,10.1,153.75,153.75,0,0,0,55.1-10.1,137.6,137.6,0,0,0,46.4-29.3,140.985,140.985,0,0,0,31.8-46.2c8-18,11.9-38.5,11.9-61.3s-4-43.3-11.9-61.5A142.332,142.332,0,0,0,1669.5,370.5Zm-20.7,149c-5.1,11.8-11.8,21.6-20.1,29.3a81.771,81.771,0,0,1-28.5,17.3,92.83,92.83,0,0,1-32.2,5.8,90.518,90.518,0,0,1-32-5.8,85.361,85.361,0,0,1-28.3-17.3,83.426,83.426,0,0,1-20.1-29.3c-5.1-11.8-7.6-25.7-7.6-41.6s2.5-29.8,7.6-41.6c5-11.8,11.7-21.6,20.1-29.3a83.744,83.744,0,0,1,28.3-17.3,93.661,93.661,0,0,1,32-5.8,92.418,92.418,0,0,1,32.2,5.8,85.224,85.224,0,0,1,28.5,17.3,83.426,83.426,0,0,1,20.1,29.3c5,11.8,7.6,25.7,7.6,41.6C1656.3,493.9,1653.8,507.7,1648.8,519.5Z" fill="#fff"/>
      <path id="Trazado_6" data-name="Trazado 6" d="M2001,337l-82.8,203.8L1833.5,337H1761V619.2h52.6V423l81.1,196.2h45.8l81.2-197.8V619.2h54.1V337Z" fill="#fff"/>
      <path id="Trazado_7" data-name="Trazado 7" d="M326.7,152H-54V532.7H84.4V671.1H465.1V290.4H326.7ZM15.2,463.5V221.2H257.5v69.2H84.5v173H15.2ZM257.5,359.7V463.5H153.7V359.7Zm138.4,0V602H153.7V532.8h173v-173h69.2Z" fill="#fff"/>
    </g>
  </g>
</svg>
